<svg width="109" height="35" viewBox="0 0 109 35" fill="none" xmlns="http://www.w3.org/2000/svg">
<path d="M21.8187 18.8H13.4188C14.0188 15.12 14.5788 10.52 14.8188 6.72H1.01875V0.519998H23.4188C23.1788 6.96 22.6588 13.16 21.8187 18.8ZM25.2188 20.28V0.519998H33.2188V6.68H36.8188V13.48H33.2188V20.28H25.2188ZM0.81875 34.36L13.6188 19.88H22.0188L34.8188 34.36H24.0188L17.8188 26.84L11.6188 34.36H0.81875ZM55.9663 17.88V0.519998H62.9263V5.28H64.6463V0.519998H71.6063V17.88H64.6463V12.08H62.9263V17.88H55.9663ZM38.0063 17.88L42.2063 0.519998H51.0063L55.2063 17.88H48.1662L46.6063 9.28L45.0463 17.88H38.0063ZM71.8063 26.72C71.8063 31.12 69.3263 34.36 64.5263 34.36H45.4863C40.6863 34.36 38.2063 31.12 38.2063 26.72C38.2063 22.32 40.6863 19.08 45.4863 19.08H64.5263C69.3263 19.08 71.8063 22.32 71.8063 26.72ZM55.0063 19.84C54.8863 23.64 52.2863 26.6 41.9663 26.72C52.5663 26.88 55.0063 30 55.0063 33.92C55.0063 30 57.4063 26.88 68.0463 26.72C57.6863 26.6 55.1263 23.64 55.0063 19.84ZM75.5938 34.36V14.12H87.9538V6.72H75.5938V0.519998H95.9538V20.32H83.5938V28.16C89.3938 28.16 92.7938 27.88 97.3538 26.96V34.36H75.5938ZM97.1538 19.52V12.72H100.794V0.519998H108.794V34.36H100.794V19.52H97.1538Z" fill="#21242E"/>
</svg>
