<svg width="56" height="56" viewBox="0 0 56 56" fill="none" xmlns="http://www.w3.org/2000/svg">
<g filter="url(#filter0_b_1570_43146)">
<rect width="56" height="56" rx="28" fill="white"/>
<g clip-path="url(#clip0_1570_43146)">
<path d="M21.75 29.25L28 23L34.25 29.25" stroke="#21242E" stroke-width="2" stroke-linecap="round" stroke-linejoin="round"/>
<path d="M21.75 23L28 16.75L34.25 23" stroke="#21242E" stroke-width="2" stroke-linecap="round" stroke-linejoin="round"/>
</g>
<path d="M19.3711 35.8574V34.9297H24.8496V35.8574H22.6523V42H21.5781V35.8574H19.3711ZM27.3301 42.1074C25.8262 42.1074 24.8447 41.0137 24.8496 39.373C24.8447 37.7227 25.8262 36.6289 27.3301 36.6289C28.8242 36.6289 29.8008 37.7227 29.8008 39.373C29.8008 41.0137 28.8242 42.1074 27.3301 42.1074ZM25.8945 39.373C25.8945 40.3838 26.3584 41.2383 27.3301 41.2383C28.2871 41.2383 28.7461 40.3838 28.7461 39.373C28.7461 38.3574 28.2871 37.4932 27.3301 37.4883C26.3584 37.4932 25.8945 38.3574 25.8945 39.373ZM30.8262 43.9922V36.6973H31.8418V37.5566H31.9297C32.1152 37.2246 32.4717 36.6289 33.4531 36.6289C34.7373 36.6289 35.6797 37.6348 35.6797 39.3633C35.6797 41.0723 34.7471 42.1025 33.4629 42.1074C32.501 42.1025 32.1201 41.5166 31.9297 41.1699H31.8711V43.9922H30.8262ZM31.8516 39.3438C31.8516 40.457 32.3398 41.2139 33.2285 41.2188C34.1465 41.2139 34.625 40.4082 34.625 39.3438C34.625 38.2988 34.1611 37.5127 33.2285 37.5176C32.3301 37.5127 31.8516 38.2402 31.8516 39.3438Z" fill="#21242E"/>
<rect x="0.15" y="0.15" width="55.7" height="55.7" rx="27.85" stroke="#E3E3E6" stroke-width="0.3"/>
</g>
<defs>
<filter id="filter0_b_1570_43146" x="-4" y="-4" width="64" height="64" filterUnits="userSpaceOnUse" color-interpolation-filters="sRGB">
<feFlood flood-opacity="0" result="BackgroundImageFix"/>
<feGaussianBlur in="BackgroundImageFix" stdDeviation="2"/>
<feComposite in2="SourceAlpha" operator="in" result="effect1_backgroundBlur_1570_43146"/>
<feBlend mode="normal" in="SourceGraphic" in2="effect1_backgroundBlur_1570_43146" result="shape"/>
</filter>
<clipPath id="clip0_1570_43146">
<rect width="20" height="20" fill="white" transform="translate(18 13)"/>
</clipPath>
</defs>
</svg>
