<svg width="53" height="52" viewBox="0 0 53 52" fill="none" xmlns="http://www.w3.org/2000/svg">
<path d="M26.4984 48.7467C41.6661 48.7467 49.2467 38.5612 49.2467 25.9967C49.2467 13.4355 41.6661 3.25 26.4967 3.25C11.3306 3.25 3.75 13.4355 3.75 25.9984C3.75 38.5612 11.329 48.7467 26.4984 48.7467Z" fill="#F8F8F9"/>
<path d="M16.7776 11.9763C16.4689 13.1186 15.9245 14.1781 15.047 14.95C14.1809 15.7105 12.9231 16.25 11.0625 16.25C10.847 16.25 10.6403 16.3356 10.488 16.488C10.3356 16.6404 10.25 16.847 10.25 17.0625C10.25 17.278 10.3356 17.4847 10.488 17.637C10.6403 17.7894 10.847 17.875 11.0625 17.875C13.2644 17.875 14.9186 17.225 16.1195 16.1704C17.3058 15.1271 17.9818 13.7491 18.3458 12.4004C18.3751 12.297 18.3836 12.1888 18.3709 12.0821C18.3581 11.9753 18.3243 11.8722 18.2714 11.7787C18.2185 11.6851 18.1476 11.6029 18.0627 11.537C17.9778 11.471 17.8807 11.4226 17.777 11.3944C17.6733 11.3663 17.565 11.359 17.4584 11.3729C17.3519 11.3869 17.2491 11.4219 17.1562 11.4759C17.0632 11.5298 16.9819 11.6017 16.9169 11.6873C16.8519 11.7729 16.8046 11.8722 16.7776 11.9763ZM36.2224 11.9763C36.5311 13.1186 37.0755 14.1781 37.953 14.95C38.8191 15.7105 40.0769 16.25 41.9375 16.25C42.153 16.25 42.3597 16.3356 42.512 16.488C42.6644 16.6404 42.75 16.847 42.75 17.0625C42.75 17.278 42.6644 17.4847 42.512 17.637C42.3597 17.7894 42.153 17.875 41.9375 17.875C39.7356 17.875 38.0814 17.225 36.8805 16.1704C35.6943 15.1271 35.0182 13.7491 34.6542 12.4004C34.6249 12.297 34.6164 12.1888 34.6291 12.0821C34.6419 11.9753 34.6757 11.8722 34.7286 11.7787C34.7815 11.6851 34.8524 11.6029 34.9373 11.537C35.0222 11.471 35.1193 11.4226 35.223 11.3944C35.3267 11.3663 35.435 11.359 35.5416 11.3729C35.6481 11.3869 35.7509 11.4219 35.8438 11.4759C35.9368 11.5298 36.0181 11.6017 36.0831 11.6873C36.1481 11.7729 36.1954 11.8722 36.2224 11.9763ZM26.5 37.375C24.4102 37.375 23.2273 38.0705 22.7739 38.5239C22.624 38.6791 22.4447 38.8029 22.2464 38.888C22.0482 38.9732 21.8349 39.018 21.6192 39.0199C21.4034 39.0218 21.1894 38.9807 20.9897 38.899C20.79 38.8173 20.6086 38.6966 20.456 38.544C20.3034 38.3914 20.1827 38.21 20.101 38.0103C20.0193 37.8106 19.9782 37.5966 19.9801 37.3809C19.982 37.1651 20.0268 36.9519 20.112 36.7536C20.1971 36.5553 20.3209 36.376 20.4761 36.2261C21.6461 35.0561 23.7148 34.125 26.5 34.125C29.165 34.125 31.3441 35.0464 32.5239 36.2261C32.8199 36.5326 32.9837 36.9431 32.98 37.3692C32.9763 37.7952 32.8054 38.2028 32.5041 38.5041C32.2028 38.8054 31.7952 38.9763 31.3692 38.98C30.9431 38.9837 30.5326 38.8199 30.2261 38.5239C29.7809 38.0786 28.4955 37.375 26.5 37.375ZM13.6722 22.0236C13.8651 21.6385 14.2029 21.3456 14.6115 21.2094C15.0201 21.0732 15.466 21.1048 15.8514 21.2973L22.3514 24.5473C22.6214 24.6822 22.8484 24.8897 23.0071 25.1464C23.1658 25.4031 23.2499 25.699 23.2499 26.0008C23.2499 26.3026 23.1658 26.5985 23.0071 26.8552C22.8484 27.112 22.6214 27.3194 22.3514 27.4544L15.8514 30.7044C15.6604 30.7998 15.4525 30.8566 15.2395 30.8716C15.0266 30.8867 14.8127 30.8596 14.6102 30.792C14.4077 30.7244 14.2205 30.6176 14.0593 30.4777C13.8981 30.3377 13.766 30.1674 13.6706 29.9764C13.5752 29.7854 13.5184 29.5775 13.5034 29.3645C13.4883 29.1516 13.5154 28.9377 13.583 28.7352C13.6506 28.5327 13.7574 28.3455 13.8974 28.1843C14.0373 28.0231 14.2076 27.891 14.3986 27.7956L17.9899 26L14.3986 24.2044C14.2077 24.1089 14.0375 23.9768 13.8976 23.8155C13.7578 23.6542 13.6511 23.467 13.5837 23.2645C13.5162 23.062 13.4893 22.8482 13.5045 22.6352C13.5197 22.4223 13.5767 22.2145 13.6722 22.0236ZM39.3294 22.0236C39.2339 21.8327 39.1018 21.6625 38.9405 21.5226C38.7792 21.3828 38.592 21.2761 38.3895 21.2087C38.187 21.1412 37.9731 21.1143 37.7602 21.1295C37.5473 21.1447 37.3395 21.2017 37.1486 21.2973L30.6486 24.5473C30.3786 24.6822 30.1516 24.8897 29.9929 25.1464C29.8342 25.4031 29.7501 25.699 29.7501 26.0008C29.7501 26.3026 29.8342 26.5985 29.9929 26.8552C30.1516 27.112 30.3786 27.3194 30.6486 27.4544L37.1486 30.7044C37.3396 30.7998 37.5475 30.8566 37.7605 30.8716C37.9734 30.8867 38.1873 30.8596 38.3898 30.792C38.5923 30.7244 38.7795 30.6176 38.9407 30.4777C39.1019 30.3377 39.234 30.1674 39.3294 29.9764C39.4248 29.7854 39.4816 29.5775 39.4966 29.3645C39.5117 29.1516 39.4846 28.9377 39.417 28.7352C39.3494 28.5327 39.2426 28.3455 39.1026 28.1843C38.9627 28.0231 38.7924 27.891 38.6014 27.7956L35.0101 26L38.6014 24.2044C38.7924 24.1091 38.9628 23.977 39.1028 23.8158C39.2428 23.6546 39.3497 23.4674 39.4173 23.2649C39.4849 23.0623 39.5119 22.8485 39.4968 22.6355C39.4818 22.4225 39.4249 22.2146 39.3294 22.0236Z" fill="#D5D6D9"/>
</svg>
