<svg width="25" height="24" viewBox="0 0 25 24" fill="none" xmlns="http://www.w3.org/2000/svg">
<path d="M8.71373 16.4886C9.03867 17.4111 9.56006 18.252 10.2418 18.9532C10.9236 19.6544 11.7495 20.1991 12.6625 20.5498C13.5755 20.9006 14.5537 21.0488 15.5296 20.9844C16.5055 20.92 17.4557 20.6444 18.3147 20.1768L21.115 20.9764C21.2115 21.0041 21.3136 21.0054 21.4108 20.9802C21.5079 20.9551 21.5966 20.9044 21.6676 20.8334C21.7386 20.7625 21.7893 20.6738 21.8144 20.5766C21.8396 20.4794 21.8382 20.3773 21.8106 20.2808L21.0109 17.4805C21.5565 16.4799 21.8399 15.3574 21.8345 14.2176C21.8292 13.0779 21.5354 11.9581 20.9804 10.9626C20.4255 9.96712 19.6275 9.12835 18.6609 8.52449C17.6943 7.92064 16.5905 7.57138 15.4525 7.50926M3.05123 16.4764C2.95474 16.5041 2.85261 16.5054 2.75544 16.4802C2.65827 16.4551 2.56959 16.4044 2.49862 16.3334C2.42765 16.2625 2.37696 16.1738 2.35181 16.0766C2.32666 15.9794 2.32797 15.8773 2.35561 15.7808L3.15529 12.9805C2.37837 11.5552 2.14115 9.89755 2.48711 8.3115C2.83306 6.72544 3.73902 5.31719 5.03894 4.34484C6.33886 3.3725 7.94565 2.90119 9.56484 3.0173C11.184 3.13341 12.7071 3.82916 13.855 4.97704C15.0029 6.12492 15.6986 7.64802 15.8148 9.26721C15.9309 10.8864 15.4596 12.4932 14.4872 13.7931C13.5149 15.093 12.1066 15.999 10.5206 16.3449C8.93451 16.6909 7.2769 16.4537 5.85154 15.6768L3.05123 16.4764Z" stroke="#393E4F" stroke-width="1.5" stroke-linecap="round" stroke-linejoin="round"/>
</svg>
