<svg width="25" height="24" viewBox="0 0 25 24" fill="none" xmlns="http://www.w3.org/2000/svg">
<path d="M8.71507 16.4886C9.04002 17.4111 9.5614 18.252 10.2432 18.9532C10.925 19.6544 11.7509 20.1991 12.6638 20.5498C13.5768 20.9006 14.555 21.0488 15.5309 20.9844C16.5068 20.92 17.4571 20.6444 18.316 20.1768L21.1163 20.9764C21.2128 21.0041 21.3149 21.0054 21.4121 20.9802C21.5093 20.9551 21.598 20.9044 21.6689 20.8334C21.7399 20.7625 21.7906 20.6738 21.8157 20.5766C21.8409 20.4794 21.8396 20.3773 21.8119 20.2808L21.0123 17.4805C21.5579 16.4799 21.8412 15.3574 21.8359 14.2176C21.8305 13.0779 21.5367 11.9581 20.9818 10.9626C20.4268 9.96712 19.6289 9.12835 18.6622 8.52449C17.6956 7.92064 16.5919 7.57138 15.4538 7.50926M3.05257 16.4764C2.95608 16.5041 2.85395 16.5054 2.75678 16.4802C2.65961 16.4551 2.57094 16.4044 2.49996 16.3334C2.42899 16.2625 2.3783 16.1738 2.35315 16.0766C2.328 15.9794 2.32931 15.8773 2.35695 15.7808L3.15664 12.9805C2.37972 11.5552 2.14249 9.89755 2.48845 8.3115C2.83441 6.72544 3.74036 5.31719 5.04028 4.34484C6.3402 3.3725 7.947 2.90119 9.56618 3.0173C11.1854 3.13341 12.7085 3.82916 13.8564 4.97704C15.0042 6.12492 15.7 7.64802 15.8161 9.26721C15.9322 10.8864 15.4609 12.4932 14.4886 13.7931C13.5162 15.093 12.108 15.999 10.5219 16.3449C8.93585 16.6909 7.27824 16.4537 5.85289 15.6768L3.05257 16.4764Z" stroke="#8D9996" stroke-width="1.5" stroke-linecap="round" stroke-linejoin="round"/>
</svg>
