<svg width="25" height="24" viewBox="0 0 25 24" fill="none" xmlns="http://www.w3.org/2000/svg">
<path d="M22.4692 10.0128C21.6771 6.08419 18.5824 2.98956 14.6539 2.19746C13.5711 1.97914 12.6666 2.89544 12.6666 4V10C12.6666 11.1046 13.5621 12 14.6666 12H20.6666C21.7712 12 22.6875 11.0956 22.4692 10.0128Z" fill="#D5FF66"/>
<path d="M9.66663 4.22303C5.65865 5.13249 2.66663 8.71684 2.66663 13C2.66663 17.9706 6.69606 22 11.6666 22C15.9498 22 19.5342 19.008 20.4436 15M14.6539 2.19746C18.5824 2.98956 21.6771 6.08419 22.4692 10.0128C22.6875 11.0956 21.7712 12 20.6666 12H14.6666C13.5621 12 12.6666 11.1046 12.6666 10V4C12.6666 2.89544 13.5711 1.97914 14.6539 2.19746Z" stroke="#393E4F" stroke-width="1.5" stroke-linecap="round"/>
</svg>
